<?xml version="1.0" encoding="utf-8"?><!-- Uploaded to: SVG Repo, www.svgrepo.com, Generator: SVG Repo Mixer Tools -->
<svg width="800px" height="800px" viewBox="0 0 43.015 43.015" xmlns="http://www.w3.org/2000/svg">
  <path id="profile" d="M527.352,255.432a2.6,2.6,0,0,1-1.915,1.915,98.592,98.592,0,0,1-35.891,0,2.6,2.6,0,0,1-1.915-1.915,98.571,98.571,0,0,1,0-35.888,2.6,2.6,0,0,1,1.915-1.915,98.592,98.592,0,0,1,35.891,0,2.6,2.6,0,0,1,1.915,1.915A98.567,98.567,0,0,1,527.352,255.432ZM520.825,244.6a24.835,24.835,0,0,0-6.644-4.225,9.1,9.1,0,1,0-12.647.136,25.24,25.24,0,0,0-6.31,4.089q-12.8,11.021,12.8,11.021T520.825,244.6Zm-12.8-6.049c-1.477,0-2.674-.716-2.674-1.6a1,1,0,0,1,.094-.4,2.626,2.626,0,0,1-.094-.663h.688a3.939,3.939,0,0,1,3.973,0h.688a2.626,2.626,0,0,1-.094.663,1,1,0,0,1,.094.4C510.7,237.832,509.5,238.548,508.024,238.548Z" transform="translate(-485.984 -215.983)" fill="#2d5be2"/>
</svg>